<svg width="16" height="16" viewBox="0 0 16 16" fill="none" xmlns="http://www.w3.org/2000/svg">
<path d="M8 0C3.58182 0 0 3.58145 0 8C0 12.4185 3.58182 16 8 16C12.4182 16 16 12.4185 16 8C16 3.58145 12.4182 0 8 0ZM11.903 11.5325C11.7745 11.76 11.5382 11.888 11.2946 11.888C11.1806 11.888 11.063 11.8595 10.9552 11.7995C9.95636 11.2395 8.86788 10.8965 7.71758 10.78C6.56485 10.6645 5.42667 10.7815 4.33333 11.1305C3.96848 11.247 3.57576 11.0455 3.4594 10.68C3.34182 10.3139 3.54424 9.92255 3.9103 9.80546C5.18546 9.39806 6.51515 9.25952 7.85818 9.396C9.19878 9.53248 10.4691 9.93249 11.6352 10.5861C11.9709 10.773 12.0909 11.197 11.903 11.5325ZM12.8606 9.10254C12.737 9.34048 12.4945 9.47697 12.2436 9.47697C12.1345 9.47697 12.0255 9.452 11.9224 9.39806C10.6945 8.75855 9.36848 8.36255 7.97818 8.22145C6.57696 8.07806 5.18909 8.20303 3.85091 8.58897C3.48121 8.69394 3.09576 8.48255 2.99031 8.11297C2.88364 7.744 3.09697 7.35855 3.46545 7.252C4.97575 6.81648 6.54182 6.67697 8.11879 6.83697C9.68485 6.99648 11.1806 7.44255 12.5661 8.16448C12.9055 8.34206 13.0388 8.76194 12.8606 9.10254ZM13.2073 7.08097C13.103 7.08097 12.9976 7.05745 12.897 7.008C11.44 6.28145 9.87272 5.82897 8.23757 5.66303C6.6 5.49552 4.97091 5.62497 3.39394 6.04606C3.02303 6.14449 2.64242 5.92448 2.54303 5.55297C2.44363 5.18194 2.66425 4.80049 3.03637 4.70145C4.77576 4.23697 6.57455 4.09552 8.37939 4.27903C10.1818 4.46145 11.9103 4.96097 13.5176 5.76255C13.8618 5.93394 14.0012 6.352 13.8303 6.69552C13.7091 6.94 13.463 7.08097 13.2073 7.08097Z"/>
</svg>
