<svg viewBox="0 0 388 388" xmlns="http://www.w3.org/2000/svg">
<path d="M253.402 62.441L271.601 31.082C275.468 24.4336 283.992 22.1758 290.64 26.0429C297.292 29.9062 299.546 38.4339 295.683 45.0819L277.761 76.4409C275.296 80.7651 270.698 83.437 265.722 83.4409C263.261 83.3901 260.851 82.7143 258.722 81.48C255.487 79.6636 253.112 76.6362 252.112 73.0659C251.116 69.4917 251.577 65.6714 253.401 62.4409L253.402 62.441ZM62.4416 253.681L31.0826 271.603C25.6529 274.791 23.0201 281.212 24.6529 287.291C26.2896 293.373 31.7857 297.611 38.0829 297.643C40.5165 297.655 42.9188 297.077 45.0829 295.963L76.4419 277.764C83.0903 273.897 85.3481 265.373 81.481 258.725C77.6177 252.073 69.09 249.819 62.442 253.686L62.4416 253.681ZM31.0826 116.201L62.1606 134.123V134.119C64.3208 135.283 66.7114 135.955 69.1606 136.08C74.2153 136.084 78.8989 133.424 81.4806 129.08C83.254 125.795 83.6915 121.951 82.7033 118.35C81.7111 114.752 79.3674 111.674 76.1603 109.76L45.0823 91.8382C41.8987 89.9359 38.0823 89.3968 34.5003 90.346C30.9144 91.2952 27.8636 93.6507 26.0433 96.8812C22.1097 103.608 24.3636 112.248 31.0824 116.201L31.0826 116.201ZM129.083 306.041C122.274 302.209 113.649 304.584 109.763 311.361L91.8406 342.439C89.9383 345.623 89.3992 349.439 90.3484 353.021C91.2976 356.607 93.6531 359.658 96.8836 361.478C98.9891 362.771 101.411 363.447 103.884 363.439C108.919 363.377 113.571 360.732 116.204 356.439L134.126 325.361H134.122C135.942 322.111 136.438 318.287 135.497 314.685C134.555 311.08 132.258 307.982 129.083 306.041L129.083 306.041ZM193.763 64.121C201.485 64.1015 207.74 57.8437 207.763 50.121V14C207.763 6.2695 201.493 0 193.763 0C186.032 0 179.763 6.2695 179.763 14V50.121C179.786 57.8437 186.04 64.101 193.763 64.121ZM109.763 76.441C112.227 80.7652 116.825 83.4371 121.802 83.441C124.278 83.4879 126.712 82.8043 128.802 81.4801C132.02 79.6481 134.364 76.5973 135.309 73.0153C136.259 69.4372 135.731 65.6286 133.841 62.4413L115.923 31.0823C114.075 27.8792 111.028 25.5432 107.45 24.5979C103.876 23.6526 100.071 24.1721 96.8839 26.0432C90.2355 29.8909 87.8761 38.3442 91.5636 45.0822L109.763 76.441ZM64.1216 193.761C64.0005 186.081 57.8052 179.882 50.1216 179.761H14.0006C6.27792 179.784 0.0236185 186.038 0.000618503 193.761C-0.0345375 197.484 1.43032 201.066 4.06312 203.702C6.69592 206.335 10.2779 207.796 14.0006 207.761H50.1216C57.8443 207.738 64.0986 201.484 64.1216 193.761ZM193.762 323.401C186.082 323.522 179.883 329.717 179.762 337.401V373.522C179.785 381.245 186.039 387.499 193.762 387.522C197.484 387.557 201.07 386.092 203.703 383.459C206.336 380.827 207.797 377.245 207.762 373.522V337.401C207.738 329.678 201.484 323.421 193.762 323.401ZM373.522 179.761H337.401C329.666 179.761 323.401 186.031 323.401 193.761C323.401 201.492 329.666 207.761 337.401 207.761H373.522C381.252 207.761 387.522 201.492 387.522 193.761C387.522 186.031 381.252 179.761 373.522 179.761ZM356.444 271.601L325.366 253.402H325.362C318.553 249.57 309.928 251.945 306.042 258.722C304.218 261.953 303.757 265.773 304.753 269.343C305.753 272.914 308.128 275.945 311.362 277.761L342.44 295.683C344.546 296.972 346.971 297.648 349.44 297.64C355.737 297.605 361.233 293.371 362.87 287.288C364.503 281.206 361.87 274.784 356.44 271.6L356.444 271.601ZM318.081 135.801C320.518 135.844 322.928 135.266 325.081 134.121L356.44 115.922C363.088 112.055 365.346 103.531 361.479 96.8833C357.615 90.231 349.088 87.9771 342.44 91.8403L311.081 109.762C304.495 113.676 302.253 122.141 306.042 128.801C308.506 133.129 313.1 135.801 318.081 135.801V135.801ZM277.761 311.081C275.913 307.878 272.866 305.546 269.288 304.597C265.714 303.651 261.909 304.171 258.722 306.042C252.074 309.89 249.714 318.343 253.402 325.081L271.601 356.44C274.065 360.764 278.663 363.436 283.64 363.44C286.116 363.487 288.55 362.803 290.64 361.479C293.858 359.647 296.202 356.596 297.151 353.014C298.097 349.436 297.569 345.627 295.683 342.44L277.761 311.081ZM118.441 118.441C98.4636 138.418 87.2416 165.511 87.2416 193.761C87.2416 222.011 98.4646 249.105 118.441 269.081C138.418 289.058 165.511 300.28 193.761 300.28C222.011 300.28 249.105 289.057 269.081 269.081C289.058 249.104 300.28 222.011 300.28 193.761C300.28 165.511 289.057 138.417 269.081 118.441C249.132 98.41 222.03 87.152 193.761 87.152C165.492 87.152 138.39 98.41 118.441 118.441Z"/>
</svg>
